<svg width="214" height="40" viewBox="0 0 214 40" fill="none" xmlns="http://www.w3.org/2000/svg">
<path fill-rule="evenodd" clip-rule="evenodd" d="M16.5 36.4545C25.5876 41.7012 37.2078 38.5876 42.4545 29.5C47.7012 20.4124 44.5876 8.79222 35.5 3.54552C26.4124 -1.70119 14.7922 1.41244 9.54552 10.5C6.08779 16.489 6.26111 23.5779 9.38242 29.2176C18.6335 29.4344 22.4267 35.3656 26.2667 35.8111C23.9439 36.4545 21.1947 35.6045 17.6589 33.5138C16.3879 34.2078 13.5145 34.3677 14.3753 35.0317C15.042 35.5459 15.7507 36.0219 16.5 36.4545ZM37.0276 21.229C34.6676 21.8614 32.2418 20.4609 31.6094 18.1008C30.9771 15.7408 32.3776 13.315 34.7376 12.6826C37.0976 12.0503 39.5234 13.4508 40.1558 15.8108C40.7882 18.1709 39.3877 20.5967 37.0276 21.229ZM29.5745 34.1382C27.2145 34.7706 24.7887 33.37 24.1563 31.01C23.5239 28.65 24.9245 26.2242 27.2845 25.5918C29.6445 24.9594 32.0703 26.36 32.7027 28.72C33.3351 31.08 31.9346 33.5058 29.5745 34.1382ZM24.786 21.8538C25.9145 22.5054 27.3525 22.1275 27.9978 21.0097C28.6432 19.8919 28.2515 18.4575 27.123 17.806C25.9945 17.1544 24.5565 17.5324 23.9111 18.6502C23.2658 19.768 23.6574 21.2023 24.786 21.8538ZM16.6653 26.6851C14.3053 27.3175 11.8795 25.9169 11.2471 23.5569C10.6148 21.1969 12.0153 18.771 14.3753 18.1387C16.7354 17.5063 19.1612 18.9068 19.7935 21.2669C20.4259 23.6269 19.0254 26.0527 16.6653 26.6851ZM18.7002 10.6477C19.3326 13.0078 21.7584 14.4083 24.1185 13.7759C26.4785 13.1436 27.879 10.7178 27.2467 8.35771C26.6143 5.99769 24.1885 4.59715 21.8284 5.22949C19.4684 5.86188 18.0679 8.28769 18.7002 10.6477Z" fill="#977D99"/>
<path d="M64.76 7.67993H69.15L78.88 33.2399H73.77L71.38 26.8399H62.45L60.11 33.2099H55L64.76 7.67993ZM70.48 23.3799L66.95 13.3799L63.28 23.3799H70.48Z" fill="#977D99"/>
<path d="M84.09 6.95996H88.88V27.19C88.8422 27.773 89.0201 28.3496 89.38 28.81C89.562 29.0074 89.7856 29.1619 90.0347 29.2622C90.2837 29.3625 90.552 29.4061 90.82 29.39C91.1583 29.3906 91.4949 29.3435 91.82 29.25C92.1627 29.1579 92.4972 29.0375 92.82 28.89L93.47 32.56C92.7472 32.8959 91.9843 33.1379 91.2 33.28C90.4297 33.4374 89.6462 33.5211 88.86 33.53C88.2241 33.5698 87.5865 33.4834 86.9841 33.2757C86.3817 33.068 85.8263 32.7432 85.35 32.32C84.9176 31.8628 84.5843 31.3213 84.3709 30.7294C84.1576 30.1375 84.0688 29.5078 84.11 28.88L84.09 6.95996Z" fill="#977D99"/>
<path d="M98.42 6.95996H103.24V27.19C103.202 27.773 103.38 28.3496 103.74 28.81C103.922 29.0074 104.146 29.1619 104.395 29.2622C104.644 29.3625 104.912 29.4061 105.18 29.39C105.518 29.3906 105.855 29.3435 106.18 29.25C106.523 29.1579 106.857 29.0375 107.18 28.89L107.83 32.56C107.107 32.8959 106.344 33.1379 105.56 33.28C104.79 33.4374 104.006 33.5211 103.22 33.53C102.584 33.5698 101.946 33.4834 101.344 33.2757C100.742 33.068 100.186 32.7432 99.71 32.32C99.2776 31.8628 98.9443 31.3213 98.731 30.7294C98.5176 30.1375 98.4287 29.5078 98.47 28.88L98.42 6.95996Z" fill="#977D99"/>
<path d="M113.25 33.2399V7.67993H130.42V12.0399H118.22V18.6299H128.37V22.6299H118.22V33.2399H113.25Z" fill="#977D99"/>
<path d="M136.36 11.75V6.95996H141.18V11.75H136.36ZM136.36 33.24V14.38H141.18V33.24H136.36Z" fill="#977D99"/>
<path d="M148.42 6.95996H153.24V27.19C153.202 27.773 153.38 28.3496 153.74 28.81C153.922 29.0074 154.146 29.1619 154.395 29.2622C154.644 29.3625 154.912 29.4061 155.18 29.39C155.518 29.3906 155.855 29.3435 156.18 29.25C156.523 29.1579 156.857 29.0375 157.18 28.89L157.83 32.56C157.107 32.8959 156.344 33.1379 155.56 33.28C154.79 33.4374 154.006 33.5211 153.22 33.53C152.584 33.5698 151.946 33.4834 151.344 33.2757C150.742 33.068 150.186 32.7432 149.71 32.32C149.278 31.8628 148.944 31.3213 148.731 30.7294C148.518 30.1375 148.429 29.5078 148.47 28.88L148.42 6.95996Z" fill="#977D99"/>
<path d="M192.09 33.2401H187.27V22.6601C187.361 21.5037 187.092 20.3475 186.5 19.3501C186.252 19.0212 185.928 18.7581 185.554 18.5838C185.181 18.4095 184.771 18.3292 184.36 18.3501C183.354 18.364 182.39 18.7568 181.66 19.4501C180.801 20.2131 180.176 21.2051 179.86 22.3101V33.3101H175.04V22.6601C175.131 21.5037 174.862 20.3475 174.27 19.3501C174.022 19.0212 173.697 18.7581 173.324 18.5838C172.951 18.4095 172.541 18.3292 172.13 18.3501C171.135 18.3738 170.183 18.7576 169.45 19.4301C168.579 20.1787 167.946 21.166 167.63 22.2701V33.2701H162.78V14.3801H167.14V17.8401C167.805 16.6445 168.797 15.6629 170 15.0101C171.28 14.33 172.711 13.9859 174.16 14.0101C175.484 13.9253 176.792 14.3351 177.83 15.1601C178.679 15.8998 179.262 16.8974 179.49 18.0001C180.186 16.7629 181.192 15.7288 182.41 15.0001C183.631 14.3172 185.011 13.972 186.41 14.0001C187.397 13.9629 188.377 14.1871 189.25 14.6501C189.965 15.0521 190.561 15.6349 190.98 16.3401C191.404 17.076 191.692 17.8822 191.83 18.7201C191.985 19.6117 192.062 20.5151 192.06 21.4201L192.09 33.2401Z" fill="#977D99"/>
<path d="M206.34 33.6C204.762 33.5994 203.195 33.3427 201.7 32.84C200.273 32.3842 198.951 31.6501 197.81 30.68L199.61 27.68C200.652 28.4343 201.784 29.0558 202.98 29.53C204.018 29.9404 205.124 30.154 206.24 30.16C207.033 30.202 207.821 30.0145 208.51 29.62C208.774 29.4586 208.989 29.23 209.135 28.9576C209.281 28.6852 209.352 28.3788 209.34 28.07C209.346 27.7503 209.254 27.4365 209.075 27.1715C208.896 26.9066 208.639 26.7034 208.34 26.59C207.314 26.1462 206.254 25.7851 205.17 25.51C203.943 25.1767 202.9 24.8434 202.04 24.51C201.295 24.2612 200.591 23.904 199.95 23.45C199.458 23.0964 199.063 22.6255 198.8 22.08C198.547 21.4969 198.424 20.8656 198.44 20.2301C198.427 19.3353 198.618 18.4494 199 17.64C199.364 16.8625 199.901 16.1785 200.57 15.64C201.273 15.0842 202.073 14.6637 202.93 14.4C203.878 14.1057 204.867 13.9606 205.86 13.97C207.217 13.9573 208.568 14.1632 209.86 14.58C211.118 15.007 212.275 15.6878 213.26 16.58L211.32 19.5C210.47 18.8434 209.53 18.3114 208.53 17.92C207.674 17.5938 206.766 17.4244 205.85 17.42C205.134 17.3941 204.424 17.5672 203.8 17.92C203.526 18.0879 203.304 18.3279 203.158 18.6136C203.011 18.8994 202.946 19.2199 202.97 19.54C202.959 19.8299 203.028 20.1172 203.17 20.37C203.328 20.6128 203.545 20.8122 203.8 20.95C204.159 21.1511 204.538 21.3153 204.93 21.44C205.397 21.5934 205.98 21.7567 206.68 21.93C207.973 22.2634 209.083 22.5967 210.01 22.93C210.817 23.2048 211.581 23.5919 212.28 24.08C212.828 24.4632 213.275 24.9748 213.58 25.57C213.865 26.1976 214.005 26.8811 213.99 27.57C214.023 28.4093 213.854 29.2442 213.497 30.0046C213.14 30.765 212.606 31.4287 211.94 31.94C210.315 33.1119 208.341 33.6972 206.34 33.6Z" fill="#977D99"/>
<path fill-rule="evenodd" clip-rule="evenodd" d="M16.8842 36.6815C12.0805 33.358 3.69711 35.4318 0.574249 36.9582C7.49357 29.7469 15.6232 32.0222 18.5794 34.0674C19.2606 34.5388 19.2931 35.618 18.8218 36.2993C18.3504 36.9806 17.5655 37.1529 16.8842 36.6815Z" fill="#977D99"/>
</svg>
